<svg width="389" height="122" preserveAspectRatio="xMaxYMax" xmlns="http://www.w3.org/2000/svg">
	<g id="pdp70" fill="none" stroke="#f6f5f5" stroke-width="4" stroke-linejoin="miter">
		<circle cx="35" cy="61" r="20"/>
		<path d="M15 36 v-7 h-12 v90 h12 v-32 a32 32 0 1 0 0 -51 Z"/>
		<circle cx="99" cy="61" r="20"/>
		<path d="M119 36 v-32 h12 v90 h-12 v-7 a32 32 0 1 1 0 -51 Z"/>
		<circle cx="163" cy="61" r="20"/>
		<path d="M143 36 v-7 h-12 v90 h12 v-32 a32 32 0 1 0 0 -51 Z"/>
		<path d="M253 118 l28 -114 Z"/>
		<path d="M277 29 h50 v10 a180 180 0 0 0 -28 54 h-12 a180 180 0 0 1 28 -54 h-38 v-10 Z"/>
		<circle cx="354" cy="61" r="20"/>
		<circle cx="354" cy="61" r="32"/>
	</g>
	<g id="11" fill="#f6f5f5">
		<path d="M208 27 h16 v68 h-16 v-46 h-17 l-6 -12 h13 a16 16 0 0 0 10 -10 Z"/>
		<path d="M241 27 h16 v68 h-16 v-46 h-17 v-12 h7 a16 16 0 0 0 10 -10 Z"/>
	</g>
</svg>